<?xml version="1.0" encoding="UTF-8"?>
<svg width="78px" height="79px" viewBox="0 0 78 79" version="1.1" xmlns="http://www.w3.org/2000/svg" xmlns:xlink="http://www.w3.org/1999/xlink">
    <title>Group</title>
    <g id="Page-1" stroke="none" stroke-width="1" fill="none" fill-rule="evenodd">
        <g id="td_pink_vettoriale-(1)" transform="translate(0.000000, 1.000000)" fill="#FF1D4D">
            <g id="Group" transform="translate(0.499900, -0.309200)">
                <polygon id="Fill-20" points="56.0455 14.09 58.2535 14.09 58.2535 0 48.5745 0 48.5745 14.09"></polygon>
                <polygon id="Fill-21" points="28.7936 62.8395 27.8646 62.8395 27.3226 62.8395 25.1146 62.8395 24.0726 62.8395 21.8646 62.8395 21.3226 62.8395 19.1786 62.8395 19.1786 77.4325 28.8576 77.4325 28.8576 62.8285 28.7936 62.8285"></polygon>
                <polygon id="Fill-22" points="58.2535 18.9298 56.0455 18.9298 48.5745 18.9298 46.3665 18.9298 33.6965 18.9298 33.6965 19.9188 33.6965 19.9298 33.6965 21.1268 33.6965 21.6688 33.6965 22.1268 33.6965 22.6688 33.6965 23.8768 33.6965 24.8768 33.6965 24.9188 33.6965 25.9188 33.6965 27.1268 33.6965 27.6688 33.6965 28.1268 33.6965 28.5978 33.6965 28.6088 42.5745 28.6088 44.7825 28.6088 48.5745 28.6088 50.7825 28.6088 52.2535 28.6088 58.2535 28.6088 77.4325 28.6088 77.4325 18.9298"></polygon>
                <polygon id="Fill-23" points="19.1788 43.486 19.1788 43.486 21.3868 43.486 22.4288 43.486 24.6368 43.486 25.1788 43.486 26.1078 43.486 27.3868 43.486 28.8578 43.486 28.8578 29.598 28.8568 29.598 28.8568 28.669 28.8568 28.598 28.8568 28.127 28.8568 27.669 28.8568 27.127 28.8568 25.919 28.8568 24.919 28.8568 24.877 28.8568 23.877 28.8568 23.662 28.8568 23.598 28.8568 22.669 28.8568 22.662 28.8568 22.598 28.8568 22.127 28.8568 21.669 28.8568 21.127 28.8568 19.983 28.8568 19.919 28.8568 18.983 28.8568 18.919 28.8578 18.919 28.8578 0 19.1788 0 19.1788 18.93 19.1778 18.93 19.1778 20.066 19.1778 20.607 19.1778 20.857 19.1778 20.868 19.1778 20.93 19.1778 21.066 19.1778 21.607 19.1778 22.066 19.1778 22.607 19.1778 22.816 19.1778 23.066 19.1778 23.607 19.1778 23.816 19.1778 23.857 19.1778 24.816 19.1778 24.857 19.1778 25.816 19.1778 25.857 19.1778 26.066 19.1778 26.607 19.1778 26.857 19.1778 27.066 19.1778 27.536 19.1778 27.547 19.1778 27.607 19.1778 28.066 19.1778 28.536 19.1778 28.607 19.1778 28.609 19.1788 28.609"></polygon>
                <polygon id="Fill-24" points="14.338 28.6071 14.338 28.6071 14.338 28.5361 14.338 28.0651 14.338 27.6071 14.338 27.5361 14.338 27.0651 14.338 26.8571 14.338 26.6071 14.338 26.0651 14.338 25.8571 14.338 25.8151 14.338 24.8571 14.338 24.8151 14.338 24.6011 14.338 24.5361 14.338 23.8571 14.338 23.8151 14.338 23.6071 14.338 23.6011 14.338 23.5361 14.338 23.0651 14.338 22.8151 14.338 22.6071 14.338 22.6011 14.338 22.5361 14.338 22.0651 14.338 21.6071 14.338 21.6011 14.338 21.5361 14.338 21.0651 14.338 20.9301 14.338 20.9211 14.338 20.8571 14.338 20.6071 14.338 20.0651 14.338 18.9301 0 18.9301 0 28.6081 14.338 28.6081"></polygon>
                <polygon id="Fill-25" points="77.4327 48.3253 63.0937 48.3253 63.0937 48.6623 63.0937 49.2043 63.0937 49.4123 63.0937 49.6623 63.0937 50.2043 63.0937 50.4123 63.0937 50.4543 63.0937 51.4123 63.0937 51.4543 63.0937 52.4123 63.0937 52.4533 63.0937 52.6623 63.0937 53.2033 63.0937 53.4533 63.0937 53.6623 63.0937 54.1333 63.0937 54.1443 63.0937 54.2033 63.0937 54.6623 63.0937 55.1333 63.0937 55.2033 63.0937 55.2053 63.0937 55.4533 63.0937 55.4653 63.0937 55.5273 63.0937 55.6623 63.0937 56.1333 63.0937 56.1443 63.0937 56.2033 63.0937 56.3253 63.0937 56.6623 63.0937 57.1333 63.0937 57.2033 63.0937 57.4123 63.0937 57.6623 63.0937 58.0043 77.4327 58.0043"></polygon>
                <polygon id="Fill-26" points="52.2535 33.4484 50.7825 33.4484 48.5745 33.4484 48.5745 48.3254 48.5745 48.3364 48.5745 48.3974 48.5745 48.5334 48.5745 48.5334 48.5745 49.0044 48.5745 49.0154 48.5745 49.0754 48.5745 49.1964 48.5745 49.5334 48.5745 49.5334 48.5745 50.0044 48.5745 50.0754 48.5745 50.2834 48.5745 50.2834 48.5745 50.5334 48.5745 50.5334 48.5745 50.8754 48.5745 51.0754 48.5745 51.2834 48.5745 51.2834 48.5745 51.3254 48.5745 52.2834 48.5745 52.2834 48.5745 52.3244 48.5745 53.2834 48.5745 53.3244 48.5745 53.5334 48.5745 54.0744 48.5745 54.3244 48.5745 54.5334 48.5745 55.0044 48.5745 55.0154 48.5745 55.0744 48.5745 55.5334 48.5745 56.0044 48.5745 56.0744 48.5745 56.0764 48.5745 56.5334 48.5745 57.0044 48.5745 57.0154 48.5745 57.0744 48.5745 58.0044 48.5745 77.4324 58.2535 77.4324 58.2535 65.1334 58.2535 64.2034 58.2535 64.1334 58.2535 63.6624 58.2535 63.2054 58.2535 63.2034 58.2535 63.1334 58.2535 62.6624 58.2535 62.2034 58.2535 62.1334 58.2535 61.6624 58.2535 61.4534 58.2535 61.2034 58.2535 60.6624 58.2535 60.4534 58.2535 60.4124 58.2535 59.4534 58.2535 59.4124 58.2535 59.1984 58.2535 59.1334 58.2535 58.4534 58.2535 58.4124 58.2535 58.2034 58.2535 58.1984 58.2535 58.1334 58.2535 58.0044 58.2535 57.6624 58.2535 57.4124 58.2535 57.2034 58.2535 57.1984 58.2535 57.1334 58.2535 56.6624 58.2535 56.3244 58.2535 56.2034 58.2535 56.1984 58.2535 56.1334 58.2535 55.6624 58.2535 55.5274 58.2535 55.5184 58.2535 55.4534 58.2535 55.2054 58.2535 55.2034 58.2535 55.1334 58.2535 54.6624 58.2535 54.2034 58.2535 54.1334 58.2535 53.6624 58.2535 53.4534 58.2535 53.2034 58.2535 52.6624 58.2535 52.4534 58.2535 52.4124 58.2535 51.4544 58.2535 51.4124 58.2535 51.1984 58.2535 51.1334 58.2535 50.4544 58.2535 50.4124 58.2535 50.2044 58.2535 50.1984 58.2535 50.1334 58.2535 49.6624 58.2535 49.4124 58.2535 49.2044 58.2535 49.1984 58.2535 49.1334 58.2535 48.6624 58.2535 48.3254 58.2535 48.2044 58.2535 48.1984 58.2535 48.1334 58.2535 47.6624 58.2535 47.5264 58.2535 47.5184 58.2535 47.4544 58.2535 33.4484"></polygon>
                <polygon id="Fill-27" points="43.735 57.0748 43.735 57.0048 43.735 56.5338 43.735 56.0768 43.735 56.0748 43.735 56.0048 43.735 55.5338 43.735 55.0748 43.735 55.0048 43.735 54.5338 43.735 54.3248 43.735 54.0748 43.735 53.5338 43.735 53.3248 43.735 53.2838 43.735 52.3248 43.735 52.2838 43.735 52.2828 43.735 52.0688 43.735 52.0048 43.735 51.3248 43.735 51.2838 43.735 51.2828 43.735 51.0748 43.735 51.0688 43.735 51.0048 43.735 50.8758 43.735 50.5338 43.735 50.5328 43.735 50.2838 43.735 50.2828 43.735 50.0748 43.735 50.0688 43.735 50.0048 43.735 49.5338 43.735 49.5328 43.735 49.1968 43.735 49.0748 43.735 49.0688 43.735 49.0048 43.735 48.5338 43.735 48.5328 43.735 48.3978 43.735 48.3898 43.735 48.3248 28.858 48.3248 27.387 48.3248 26.108 48.3248 25.179 48.3248 24.637 48.3248 22.429 48.3248 21.387 48.3248 19.179 48.3248 18.637 48.3248 16.429 48.3248 0 48.3248 0 58.0048 19.114 58.0048 19.114 57.9998 21.323 57.9998 21.864 57.9998 24.073 57.9998 25.114 57.9998 25.114 57.9948 25.114 57.9898 27.323 57.9898 27.864 57.9898 30.073 57.9898 31.114 57.9898 33.323 57.9898 33.864 57.9898 34.794 57.9898 34.794 58.0048 43.735 58.0048"></polygon>
            </g>
        </g>
    </g>
</svg>